<svg width="18" height="22" viewBox="0 0 18 22" fill="none" xmlns="http://www.w3.org/2000/svg">
<path d="M12.4291 5.99991L4.4934 14.8216C4.20797 15.1342 4.04725 15.5582 4.04725 16.0001C4.04725 16.4422 4.20797 16.8661 4.4934 17.1786C4.78013 17.4912 5.16714 17.6667 5.57087 17.6667C5.97588 17.6667 6.3629 17.4912 6.64963 17.1786L16.1077 6.69026C16.3905 6.38069 16.6156 6.01328 16.7686 5.60881C16.9216 5.20447 17 4.77101 17 4.33319C17 3.8955 16.9216 3.46204 16.7686 3.0577C16.6156 2.65323 16.3905 2.28581 16.1077 1.97629C15.8248 1.66677 15.4879 1.42124 15.1189 1.25373C14.7486 1.08621 14.3526 1 13.9528 1C13.5516 1 13.1556 1.08621 12.7866 1.25373C12.4163 1.42124 12.0807 1.66677 11.7978 1.97629L2.33848 12.4647C1.48087 13.4023 1 14.6741 1 16.0001C1 17.3261 1.48087 18.5979 2.33848 19.5355C3.19608 20.4732 4.3584 21 5.57087 21C6.78334 21 7.94697 20.4732 8.80457 19.5355L16.6194 10.9998" stroke="#292A34" stroke-width="2" stroke-linecap="round" stroke-linejoin="round"/>
</svg>
