<svg width="26" height="26" viewBox="0 0 26 26" fill="none" xmlns="http://www.w3.org/2000/svg">
<path d="M12.9562 16.5658C14.8259 16.5658 16.3416 15.0501 16.3416 13.1803C16.3416 11.3106 14.8259 9.79492 12.9562 9.79492C11.0865 9.79492 9.5708 11.3106 9.5708 13.1803C9.5708 15.0501 11.0865 16.5658 12.9562 16.5658Z" stroke="#292A34" stroke-width="2" stroke-linecap="round" stroke-linejoin="round"/>
<path d="M17.449 19.9517C15.9406 20.9528 14.1411 21.4215 12.336 21.2834C10.5308 21.1453 8.82352 20.4083 7.48493 19.1894C6.14635 17.9705 5.25315 16.3395 4.94707 14.5552C4.64098 12.7708 4.93955 10.9354 5.79539 9.34005C6.65123 7.74472 8.01532 6.48089 9.67122 5.74909C11.3271 5.0173 13.18 4.85945 14.9358 5.3006C16.6916 5.74176 18.2499 6.75663 19.3632 8.18421C20.4766 9.61178 21.0813 11.3703 21.0815 13.1807C21.0815 15.0504 20.4044 16.5661 18.7117 16.5661C17.019 16.5661 16.3419 15.0504 16.3419 13.1807V9.79525" stroke="#292A34" stroke-width="2" stroke-linecap="round" stroke-linejoin="round"/>
</svg>
