<svg width="32" height="32" viewBox="0 0 32 32" fill="none" xmlns="http://www.w3.org/2000/svg">
<path d="M7.02541 13C7.02375 11.8141 7.25685 10.6395 7.71126 9.54398C8.16567 8.4485 8.83241 7.45379 9.67305 6.61719C10.5137 5.78059 11.5116 5.11864 12.6093 4.66951C13.7069 4.22037 14.8826 3.99293 16.0686 4.0003C21.0173 4.03709 24.9756 8.15046 24.9756 13.113V14C24.9756 18.477 25.9123 21.0749 26.7373 22.4948C26.8261 22.6465 26.8734 22.819 26.8744 22.9948C26.8753 23.1707 26.8299 23.3436 26.7426 23.4963C26.6554 23.6489 26.5294 23.7759 26.3775 23.8643C26.2255 23.9528 26.0529 23.9996 25.8771 24H6.12298C5.94713 23.9996 5.77451 23.9528 5.62254 23.8643C5.47056 23.7758 5.3446 23.6489 5.25737 23.4962C5.17014 23.3435 5.12472 23.1705 5.12569 22.9946C5.12666 22.8188 5.17399 22.6463 5.2629 22.4946C6.08831 21.0746 7.0254 18.4768 7.0254 14L7.02541 13Z" stroke="white" stroke-width="2" stroke-linecap="round" stroke-linejoin="round"/>
<path d="M12 24V25C12 26.0609 12.4214 27.0783 13.1716 27.8284C13.9217 28.5786 14.9391 29 16 29C17.0609 29 18.0783 28.5786 18.8284 27.8284C19.5786 27.0783 20 26.0609 20 25V24" stroke="white" stroke-width="2" stroke-linecap="round" stroke-linejoin="round"/>
</svg>
