<svg width="5" height="16" viewBox="0 0 5 16" fill="none" xmlns="http://www.w3.org/2000/svg">
<path fill-rule="evenodd" clip-rule="evenodd" d="M2.56973 4C3.69227 4 4.61071 3.1 4.61071 2C4.61071 0.9 3.69227 0 2.56973 0C1.44719 0 0.528748 0.9 0.528748 2C0.528748 3.1 1.44719 4 2.56973 4ZM2.56973 6C1.44719 6 0.528748 6.9 0.528748 8C0.528748 9.1 1.44719 10 2.56973 10C3.69227 10 4.61071 9.1 4.61071 8C4.61071 6.9 3.69227 6 2.56973 6ZM2.56973 12C1.44719 12 0.528748 12.9 0.528748 14C0.528748 15.1 1.44719 16 2.56973 16C3.69227 16 4.61071 15.1 4.61071 14C4.61071 12.9 3.69227 12 2.56973 12Z" fill="#757575"/>
</svg>
