<svg width="26" height="26" viewBox="0 0 26 26" fill="none" xmlns="http://www.w3.org/2000/svg">
<path d="M20.3123 22.75H5.68652C5.47104 22.75 5.26437 22.6644 5.112 22.512C4.95963 22.3597 4.87402 22.153 4.87402 21.9375V4.0625C4.87402 3.84701 4.95963 3.64035 5.112 3.48798C5.26437 3.3356 5.47104 3.25 5.68652 3.25H15.4373L21.1248 8.9375V21.9375C21.1248 22.0442 21.1038 22.1499 21.063 22.2484C21.0221 22.347 20.9623 22.4366 20.8868 22.512C20.8114 22.5875 20.7218 22.6473 20.6232 22.6882C20.5247 22.729 20.419 22.75 20.3123 22.75Z" stroke="#292A34" stroke-width="2" stroke-linecap="round" stroke-linejoin="round"/>
<path d="M15.4375 3.25V8.9375H21.1258" stroke="#292A34" stroke-width="2" stroke-linecap="round" stroke-linejoin="round"/>
<path d="M10.5625 15.4375H15.4375" stroke="#292A34" stroke-width="2" stroke-linecap="round" stroke-linejoin="round"/>
<path d="M13 13V17.875" stroke="#292A34" stroke-width="2" stroke-linecap="round" stroke-linejoin="round"/>
</svg>
