<svg width="27" height="24" viewBox="0 0 27 24" fill="none" xmlns="http://www.w3.org/2000/svg">
<path d="M13.031 17.25C16.1795 17.25 18.7319 14.8995 18.7319 12C18.7319 9.10051 16.1795 6.75 13.031 6.75C9.88247 6.75 7.33008 9.10051 7.33008 12C7.33008 14.8995 9.88247 17.25 13.031 17.25Z" stroke="#292A34" stroke-width="2" stroke-linecap="round" stroke-linejoin="round"/>
<path d="M21.9897 11.2501L23.039 9.80072C23.1074 9.70734 23.1526 9.60124 23.1714 9.48996C23.1903 9.37868 23.1823 9.26495 23.148 9.15683C22.9501 8.55656 22.6892 7.97544 22.369 7.42169C22.3104 7.32311 22.2288 7.23767 22.1302 7.17147C22.0316 7.10528 21.9183 7.05995 21.7984 7.03873L19.9417 6.69674L18.79 5.6361L18.4186 3.92623C18.3956 3.81584 18.3464 3.7115 18.2745 3.62066C18.2026 3.52981 18.1098 3.45471 18.0028 3.4007C17.4014 3.10593 16.7704 2.86571 16.1185 2.68343C16.0011 2.65188 15.8776 2.64452 15.7568 2.66187C15.6359 2.67921 15.5207 2.72085 15.4193 2.78381L13.8455 3.75002H12.2167L10.6429 2.78381C10.5415 2.72085 10.4263 2.67922 10.3055 2.66187C10.1846 2.64452 10.0611 2.65188 9.94373 2.68343C9.29189 2.86571 8.66084 3.10592 8.0595 3.40069C7.95244 3.4547 7.85966 3.52981 7.78776 3.62066C7.71587 3.71151 7.66665 3.81586 7.64362 3.92625L7.27234 5.63601L6.12051 6.69674L4.26388 7.03865C4.14401 7.05986 4.03071 7.10518 3.93206 7.17138C3.83341 7.23758 3.75185 7.32303 3.69321 7.42161C3.37306 7.97539 3.11217 8.55654 2.91422 9.15684C2.87996 9.26495 2.87196 9.37869 2.89081 9.48996C2.90965 9.60124 2.95486 9.70733 3.02324 9.8007L4.07243 11.25V12.75L3.02323 14.1993C2.95486 14.2927 2.90965 14.3988 2.89081 14.5101C2.87197 14.6214 2.87997 14.7351 2.91423 14.8432C3.11213 15.4435 3.37298 16.0247 3.69309 16.5784C3.75174 16.677 3.8333 16.7625 3.93194 16.8287C4.03059 16.8949 4.14389 16.9402 4.26375 16.9614L6.12051 17.3034L7.27224 18.364L7.64352 20.0739C7.66656 20.1843 7.71577 20.2886 7.78766 20.3795C7.85954 20.4703 7.95232 20.5454 8.05936 20.5995C8.66068 20.8943 9.29172 21.1345 9.94357 21.3167C10.061 21.3483 10.1844 21.3556 10.3053 21.3383C10.4261 21.3209 10.5413 21.2793 10.6427 21.2164L12.2166 20.2501H13.8454L15.4193 21.2164C15.5207 21.2794 15.6359 21.321 15.7568 21.3384C15.8776 21.3557 16.0011 21.3483 16.1185 21.3168C16.7703 21.1345 17.4014 20.8943 18.0027 20.5995C18.1097 20.5455 18.2025 20.4704 18.2744 20.3796C18.3463 20.2887 18.3955 20.1844 18.4185 20.074L18.7899 18.3641L19.9416 17.3034L21.7984 16.9615C21.9182 16.9403 22.0315 16.895 22.1302 16.8288C22.2288 16.7626 22.3104 16.6771 22.369 16.5785C22.6892 16.0248 22.9501 15.4437 23.148 14.8434C23.1823 14.7353 23.1903 14.6216 23.1714 14.5103C23.1526 14.399 23.1074 14.2929 23.039 14.1995L21.9897 12.7501V11.2501Z" stroke="#292A34" stroke-width="2" stroke-linecap="round" stroke-linejoin="round"/>
</svg>
