<svg width="6" height="16" viewBox="0 0 6 16" fill="none" xmlns="http://www.w3.org/2000/svg">
<path fill-rule="evenodd" clip-rule="evenodd" d="M2.82197 4C4.07274 4 5.09609 3.1 5.09609 2C5.09609 0.9 4.07274 0 2.82197 0C1.5712 0 0.547852 0.9 0.547852 2C0.547852 3.1 1.5712 4 2.82197 4ZM2.82197 6C1.5712 6 0.547852 6.9 0.547852 8C0.547852 9.1 1.5712 10 2.82197 10C4.07274 10 5.09609 9.1 5.09609 8C5.09609 6.9 4.07274 6 2.82197 6ZM2.82197 12C1.5712 12 0.547852 12.9 0.547852 14C0.547852 15.1 1.5712 16 2.82197 16C4.07274 16 5.09609 15.1 5.09609 14C5.09609 12.9 4.07274 12 2.82197 12Z" fill="#292A34"/>
</svg>
