<svg width="18" height="19" viewBox="0 0 18 19" fill="none" xmlns="http://www.w3.org/2000/svg">
<path d="M14.0625 8.25V14.5C14.0625 14.6326 14.0098 14.7598 13.9161 14.8536C13.8223 14.9473 13.6951 15 13.5625 15H2.8125C2.66332 15 2.52024 14.9407 2.41475 14.8352C2.30926 14.7298 2.25 14.5867 2.25 14.4375V6.5625C2.25 6.41332 2.30926 6.27024 2.41475 6.16475C2.52024 6.05926 2.66332 6 2.8125 6H6C6.12171 6 6.24013 6.03947 6.3375 6.1125L8.2875 7.575C8.38487 7.64803 8.50329 7.6875 8.625 7.6875H13.5C13.6492 7.6875 13.7923 7.74676 13.8977 7.85225C14.0032 7.95774 14.0625 8.10082 14.0625 8.25Z" stroke="#7B7B7B" stroke-width="2" stroke-linecap="round" stroke-linejoin="round"/>
<path d="M4.5 6V4.3125C4.5 4.16332 4.55926 4.02024 4.66475 3.91475C4.77024 3.80926 4.91332 3.75 5.0625 3.75H8.25C8.37171 3.75 8.49013 3.78947 8.5875 3.8625L10.5375 5.325C10.6349 5.39803 10.7533 5.4375 10.875 5.4375H15.75C15.8992 5.4375 16.0423 5.49676 16.1477 5.60225C16.2532 5.70774 16.3125 5.85082 16.3125 6V12.25C16.3125 12.3157 16.2996 12.3807 16.2744 12.4413C16.2493 12.502 16.2125 12.5571 16.1661 12.6036C16.1196 12.65 16.0645 12.6868 16.0038 12.7119C15.9432 12.7371 15.8782 12.75 15.8125 12.75H14.0625" stroke="#7B7B7B" stroke-width="2" stroke-linecap="round" stroke-linejoin="round"/>
</svg>
