<svg width="14" height="17" viewBox="0 0 14 17" fill="none" xmlns="http://www.w3.org/2000/svg">
<path d="M12.0417 7.89503L1.91832 1.70833C1.83305 1.65622 1.73544 1.62776 1.63553 1.62589C1.53562 1.62402 1.43701 1.6488 1.34985 1.69768C1.26269 1.74656 1.19013 1.81778 1.13963 1.90401C1.08912 1.99024 1.0625 2.08836 1.0625 2.18829V14.5617C1.0625 14.6616 1.08912 14.7598 1.13963 14.846C1.19013 14.9322 1.26269 15.0034 1.34985 15.0523C1.43701 15.1012 1.53562 15.126 1.63553 15.1241C1.73544 15.1222 1.83305 15.0938 1.91832 15.0417L12.0417 8.85496C12.1239 8.80471 12.1918 8.73419 12.239 8.65014C12.2861 8.5661 12.3109 8.47135 12.3109 8.37499C12.3109 8.27863 12.2861 8.18389 12.239 8.09985C12.1918 8.0158 12.1239 7.94528 12.0417 7.89503Z" stroke="#436EA0" stroke-width="2" stroke-linecap="round" stroke-linejoin="round"/>
</svg>
