<svg width="18" height="19" viewBox="0 0 18 19" fill="none" xmlns="http://www.w3.org/2000/svg">
<path d="M6.1875 11.625C8.20679 11.625 9.84375 9.98804 9.84375 7.96875C9.84375 5.94946 8.20679 4.3125 6.1875 4.3125C4.16821 4.3125 2.53125 5.94946 2.53125 7.96875C2.53125 9.98804 4.16821 11.625 6.1875 11.625Z" stroke="#FF9900" stroke-width="2" stroke-miterlimit="10"/>
<path d="M10.9275 4.44868C11.4304 4.30699 11.9578 4.27471 12.4742 4.35402C12.9906 4.43333 13.484 4.62238 13.9212 4.90844C14.3584 5.1945 14.7293 5.57093 15.0087 6.01237C15.2882 6.45381 15.4698 6.95002 15.5414 7.46756C15.6129 7.98511 15.5727 8.51198 15.4235 9.01269C15.2743 9.51339 15.0195 9.97631 14.6763 10.3703C14.3331 10.7642 13.9095 11.08 13.434 11.2965C12.9584 11.5129 12.442 11.6249 11.9196 11.625" stroke="#FF9900" stroke-width="2" stroke-linecap="round" stroke-linejoin="round"/>
<path d="M1.12476 14.2545C1.69579 13.4422 2.45387 12.7793 3.33499 12.3216C4.21612 11.864 5.19443 11.625 6.18731 11.625C7.1802 11.625 8.15853 11.8638 9.03969 12.3214C9.92085 12.779 10.679 13.4419 11.2501 14.2541" stroke="#FF9900" stroke-width="2" stroke-linecap="round" stroke-linejoin="round"/>
<path d="M11.9194 11.625C12.9124 11.6243 13.8909 11.8628 14.7722 12.3205C15.6534 12.7781 16.4114 13.4414 16.982 14.2541" stroke="#FF9900" stroke-width="2" stroke-linecap="round" stroke-linejoin="round"/>
</svg>
